<?xml version="1.0" standalone="no"?>
<!DOCTYPE svg PUBLIC "-//W3C//DTD SVG 20010904//EN"
 "http://www.w3.org/TR/2001/REC-SVG-20010904/DTD/svg10.dtd">
<svg version="1.0" xmlns="http://www.w3.org/2000/svg"
 width="1920.000000pt" height="1920.000000pt" viewBox="0 0 1920.000000 1920.000000"
 preserveAspectRatio="xMidYMid meet">
<metadata>
Created by potrace 1.14, written by Peter Selinger 2001-2017
</metadata>
<g transform="translate(0.000000,1920.000000) scale(0.100000,-0.100000)"
fill="#000000" stroke="none">
<path d="M9238 19195 c-2 -1 -66 -5 -143 -9 -77 -3 -162 -8 -190 -11 -27 -2
-84 -7 -125 -10 -119 -10 -172 -15 -215 -20 -22 -2 -62 -7 -90 -10 -27 -3 -66
-8 -85 -11 -19 -3 -51 -7 -70 -9 -58 -6 -251 -35 -305 -45 -27 -5 -63 -12 -80
-15 -16 -2 -55 -9 -85 -15 -30 -6 -71 -13 -90 -16 -19 -3 -51 -9 -70 -14 -19
-5 -46 -11 -60 -14 -98 -17 -460 -103 -535 -126 -47 -15 -208 -61 -227 -65
-93 -20 -548 -177 -783 -270 -245 -97 -729 -312 -800 -357 -5 -3 -64 -34 -130
-68 -427 -222 -871 -500 -1260 -789 -120 -89 -420 -324 -435 -341 -3 -3 -32
-27 -65 -55 -70 -58 -107 -90 -145 -125 -15 -14 -65 -59 -111 -100 -106 -94
-550 -538 -649 -649 -41 -46 -80 -89 -85 -95 -9 -10 -115 -132 -169 -196 -17
-20 -198 -245 -229 -285 -210 -269 -519 -722 -667 -979 -141 -245 -193 -340
-304 -561 -118 -232 -148 -295 -217 -452 -11 -24 -28 -62 -38 -85 -11 -24 -31
-72 -46 -108 -14 -36 -30 -74 -35 -85 -11 -24 -67 -167 -111 -285 -114 -306
-310 -964 -343 -1155 -3 -16 -10 -45 -15 -63 -5 -18 -10 -35 -10 -37 0 -3 -2
-18 -5 -33 -19 -84 -47 -223 -51 -247 -1 -11 -10 -63 -19 -115 -23 -128 -25
-142 -45 -275 -17 -119 -24 -169 -26 -190 -3 -33 -15 -137 -21 -180 -6 -47
-11 -100 -19 -210 -4 -44 -8 -98 -10 -120 -26 -287 -26 -1215 -1 -1375 3 -14
7 -71 11 -128 3 -56 8 -112 10 -125 2 -12 6 -53 10 -92 4 -38 8 -83 11 -100 4
-31 14 -112 19 -155 4 -39 21 -155 30 -207 24 -150 47 -278 49 -282 2 -3 7
-28 10 -55 15 -107 142 -651 186 -791 5 -16 24 -77 41 -135 62 -212 214 -653
259 -755 5 -11 25 -60 45 -110 20 -49 43 -103 50 -120 7 -16 34 -79 60 -140
62 -144 275 -576 365 -740 204 -371 442 -741 703 -1095 87 -118 290 -377 353
-450 172 -201 154 -181 274 -311 101 -111 459 -472 575 -579 360 -335 753
-644 1181 -932 173 -116 301 -198 310 -198 3 0 20 -11 38 -25 18 -14 36 -25
40 -25 5 0 20 -8 34 -19 15 -10 44 -28 64 -40 21 -11 53 -29 70 -39 681 -385
1341 -669 2028 -871 58 -17 119 -36 135 -41 116 -36 660 -166 730 -175 11 -1
34 -5 50 -9 17 -3 41 -9 55 -11 50 -10 316 -54 360 -60 25 -3 56 -8 70 -10 14
-3 45 -7 70 -10 25 -3 59 -7 75 -10 17 -3 53 -7 80 -10 28 -3 68 -7 90 -10 22
-2 69 -7 105 -10 356 -33 521 -40 930 -40 417 1 592 8 930 40 115 11 179 17
200 20 14 2 48 6 75 10 69 8 110 14 180 25 33 5 78 11 100 15 47 7 259 43 295
50 14 3 41 8 60 11 51 9 57 11 140 29 41 9 88 19 105 22 91 15 499 123 710
187 255 77 685 229 810 286 11 5 79 34 151 64 430 180 943 448 1358 710 115
72 463 307 501 338 6 5 69 52 140 105 127 94 410 319 470 374 17 15 93 82 170
150 147 129 600 578 720 713 39 44 75 84 80 90 10 10 121 139 169 196 201 238
476 608 668 900 76 116 228 359 228 364 0 2 25 45 55 95 30 51 55 94 55 96 0
2 15 30 33 62 19 32 56 101 84 153 28 52 56 106 64 120 7 14 14 27 14 30 1 3
22 46 47 95 65 129 163 343 236 515 151 359 343 913 411 1185 5 22 26 103 46
180 38 144 81 333 91 395 3 19 8 38 10 41 2 3 6 21 9 40 3 19 17 95 30 169 14
74 27 151 30 170 3 19 7 46 10 60 2 14 7 45 10 70 3 25 10 70 15 100 5 30 11
80 15 110 3 30 7 69 9 85 2 17 7 59 10 95 4 36 9 76 11 90 2 14 7 70 11 125 3
55 8 108 9 117 11 55 19 375 19 708 0 344 -4 486 -19 684 -20 261 -22 279 -51
511 -3 28 -7 61 -9 75 -4 39 -21 155 -30 208 -24 149 -47 277 -49 281 -2 3 -7
29 -10 56 -4 28 -13 77 -21 110 -7 33 -21 96 -30 140 -20 96 -100 411 -149
588 -67 237 -252 777 -311 904 -8 17 -15 34 -15 38 0 3 -8 25 -19 48 -10 23
-39 89 -64 147 -166 390 -430 896 -644 1239 -162 258 -299 459 -456 671 -88
118 -292 379 -353 450 -12 14 -52 61 -90 105 -324 377 -812 854 -1194 1165
-326 266 -792 596 -1062 755 -9 6 -50 30 -90 55 -40 25 -82 50 -93 56 -265
149 -365 203 -545 292 -228 114 -316 155 -500 234 -63 27 -129 56 -147 64 -17
7 -34 14 -38 14 -3 0 -25 8 -48 19 -120 53 -555 205 -802 280 -226 68 -768
203 -870 215 -11 2 -33 6 -50 10 -16 3 -41 9 -55 11 -50 10 -316 54 -360 60
-25 3 -56 8 -70 10 -22 4 -75 11 -150 20 -14 2 -47 6 -75 9 -79 10 -125 15
-200 22 -38 3 -83 8 -100 9 -16 2 -84 6 -150 11 -66 4 -136 9 -155 11 -42 4
-877 12 -882 8z"/>
</g>
</svg>
